<svg width="828" height="591" viewBox="0 0 828 591" fill="none" xmlns="http://www.w3.org/2000/svg">
<circle cx="18.8702" cy="18.8702" r="16.3702" fill="#F9BC60" stroke="black" stroke-width="5"/>
<circle cx="106.611" cy="18.8702" r="16.3702" fill="#F9BC60" stroke="black" stroke-width="5"/>
<circle cx="194.351" cy="18.8702" r="16.3702" fill="#F9BC60" stroke="black" stroke-width="5"/>
<circle cx="282.091" cy="18.8702" r="16.3702" fill="#F9BC60" stroke="black" stroke-width="5"/>
<circle cx="369.831" cy="18.8702" r="16.3702" fill="#F9BC60" stroke="black" stroke-width="5"/>
<circle cx="457.572" cy="18.8702" r="16.3702" fill="#F9BC60" stroke="black" stroke-width="5"/>
<circle cx="545.312" cy="18.8702" r="16.3702" fill="#F9BC60" stroke="black" stroke-width="5"/>
<circle cx="633.053" cy="18.8702" r="16.3702" fill="#F9BC60" stroke="black" stroke-width="5"/>
<circle cx="720.793" cy="18.8702" r="16.3702" fill="#F9BC60" stroke="black" stroke-width="5"/>
<circle cx="808.533" cy="18.8702" r="16.3702" fill="#F9BC60" stroke="black" stroke-width="5"/>
<circle cx="18.8702" cy="106.611" r="16.3702" fill="#F9BC60" stroke="black" stroke-width="5"/>
<circle cx="106.611" cy="106.611" r="16.3702" fill="#F9BC60" stroke="black" stroke-width="5"/>
<circle cx="194.351" cy="106.611" r="16.3702" fill="#F9BC60" stroke="black" stroke-width="5"/>
<circle cx="282.091" cy="106.611" r="16.3702" fill="#F9BC60" stroke="black" stroke-width="5"/>
<circle cx="369.831" cy="106.611" r="16.3702" fill="#F9BC60" stroke="black" stroke-width="5"/>
<circle cx="457.572" cy="106.611" r="16.3702" fill="#F9BC60" stroke="black" stroke-width="5"/>
<circle cx="545.312" cy="106.611" r="16.3702" fill="#F9BC60" stroke="black" stroke-width="5"/>
<circle cx="633.053" cy="106.611" r="16.3702" fill="#F9BC60" stroke="black" stroke-width="5"/>
<circle cx="720.793" cy="106.611" r="16.3702" fill="#F9BC60" stroke="black" stroke-width="5"/>
<circle cx="808.533" cy="106.611" r="16.3702" fill="#F9BC60" stroke="black" stroke-width="5"/>
<circle cx="18.8702" cy="194.351" r="16.3702" fill="#F9BC60" stroke="black" stroke-width="5"/>
<circle cx="106.611" cy="194.351" r="16.3702" fill="#F9BC60" stroke="black" stroke-width="5"/>
<circle cx="194.351" cy="194.351" r="16.3702" fill="#F9BC60" stroke="black" stroke-width="5"/>
<circle cx="282.091" cy="194.351" r="16.3702" fill="#F9BC60" stroke="black" stroke-width="5"/>
<circle cx="369.831" cy="194.351" r="16.3702" fill="#F9BC60" stroke="black" stroke-width="5"/>
<circle cx="457.572" cy="194.351" r="16.3702" fill="#F9BC60" stroke="black" stroke-width="5"/>
<circle cx="545.312" cy="194.351" r="16.3702" fill="#F9BC60" stroke="black" stroke-width="5"/>
<circle cx="633.053" cy="194.351" r="16.3702" fill="#F9BC60" stroke="black" stroke-width="5"/>
<circle cx="720.793" cy="194.351" r="16.3702" fill="#F9BC60" stroke="black" stroke-width="5"/>
<circle cx="808.533" cy="194.351" r="16.3702" fill="#F9BC60" stroke="black" stroke-width="5"/>
<circle cx="18.8702" cy="282.091" r="16.3702" fill="#F9BC60" stroke="black" stroke-width="5"/>
<circle cx="106.611" cy="282.091" r="16.3702" fill="#F9BC60" stroke="black" stroke-width="5"/>
<circle cx="194.351" cy="282.091" r="16.3702" fill="#F9BC60" stroke="black" stroke-width="5"/>
<circle cx="282.091" cy="282.091" r="16.3702" fill="#F9BC60" stroke="black" stroke-width="5"/>
<circle cx="369.831" cy="282.091" r="16.3702" fill="#F9BC60" stroke="black" stroke-width="5"/>
<circle cx="457.572" cy="282.091" r="16.3702" fill="#F9BC60" stroke="black" stroke-width="5"/>
<circle cx="545.312" cy="282.091" r="16.3702" fill="#F9BC60" stroke="black" stroke-width="5"/>
<circle cx="633.053" cy="282.091" r="16.3702" fill="#F9BC60" stroke="black" stroke-width="5"/>
<circle cx="720.793" cy="282.091" r="16.3702" fill="#F9BC60" stroke="black" stroke-width="5"/>
<circle cx="808.533" cy="282.091" r="16.3702" fill="#F9BC60" stroke="black" stroke-width="5"/>
<circle cx="18.8702" cy="369.831" r="16.3702" fill="#F9BC60" stroke="black" stroke-width="5"/>
<circle cx="106.611" cy="369.831" r="16.3702" fill="#F9BC60" stroke="black" stroke-width="5"/>
<circle cx="194.351" cy="369.831" r="16.3702" fill="#F9BC60" stroke="black" stroke-width="5"/>
<circle cx="282.091" cy="369.831" r="16.3702" fill="#F9BC60" stroke="black" stroke-width="5"/>
<circle cx="369.831" cy="369.831" r="16.3702" fill="#F9BC60" stroke="black" stroke-width="5"/>
<circle cx="457.572" cy="369.831" r="16.3702" fill="#F9BC60" stroke="black" stroke-width="5"/>
<circle cx="545.312" cy="369.831" r="16.3702" fill="#F9BC60" stroke="black" stroke-width="5"/>
<circle cx="633.053" cy="369.831" r="16.3702" fill="#F9BC60" stroke="black" stroke-width="5"/>
<circle cx="720.793" cy="369.831" r="16.3702" fill="#F9BC60" stroke="black" stroke-width="5"/>
<circle cx="808.533" cy="369.831" r="16.3702" fill="#F9BC60" stroke="black" stroke-width="5"/>
<circle cx="18.8702" cy="457.572" r="16.3702" fill="#F9BC60" stroke="black" stroke-width="5"/>
<circle cx="106.611" cy="457.572" r="16.3702" fill="#F9BC60" stroke="black" stroke-width="5"/>
<circle cx="194.351" cy="457.572" r="16.3702" fill="#F9BC60" stroke="black" stroke-width="5"/>
<circle cx="282.091" cy="457.572" r="16.3702" fill="#F9BC60" stroke="black" stroke-width="5"/>
<circle cx="369.831" cy="457.572" r="16.3702" fill="#F9BC60" stroke="black" stroke-width="5"/>
<circle cx="457.572" cy="457.572" r="16.3702" fill="#F9BC60" stroke="black" stroke-width="5"/>
<circle cx="545.312" cy="457.572" r="16.3702" fill="#F9BC60" stroke="black" stroke-width="5"/>
<circle cx="633.053" cy="457.572" r="16.3702" fill="#F9BC60" stroke="black" stroke-width="5"/>
<circle cx="720.793" cy="457.572" r="16.3702" fill="#F9BC60" stroke="black" stroke-width="5"/>
<circle cx="808.533" cy="457.572" r="16.3702" fill="#F9BC60" stroke="black" stroke-width="5"/>
<circle cx="18.8702" cy="545.312" r="16.3702" fill="#F9BC60" stroke="black" stroke-width="5"/>
<circle cx="106.611" cy="545.312" r="16.3702" fill="#F9BC60" stroke="black" stroke-width="5"/>
<circle cx="194.351" cy="545.312" r="16.3702" fill="#F9BC60" stroke="black" stroke-width="5"/>
<circle cx="282.091" cy="545.312" r="16.3702" fill="#F9BC60" stroke="black" stroke-width="5"/>
<circle cx="369.831" cy="545.312" r="16.3702" fill="#F9BC60" stroke="black" stroke-width="5"/>
<circle cx="457.572" cy="545.312" r="16.3702" fill="#F9BC60" stroke="black" stroke-width="5"/>
<circle cx="545.312" cy="545.312" r="16.3702" fill="#F9BC60" stroke="black" stroke-width="5"/>
<circle cx="633.053" cy="545.312" r="16.3702" fill="#F9BC60" stroke="black" stroke-width="5"/>
<circle cx="720.793" cy="545.312" r="16.3702" fill="#F9BC60" stroke="black" stroke-width="5"/>
<circle cx="808.533" cy="545.312" r="16.3702" fill="#F9BC60" stroke="black" stroke-width="5"/>
</svg>
