<svg width="374" height="400" viewBox="0 0 374 400" fill="none" xmlns="http://www.w3.org/2000/svg">
<g clip-path="url(#clip0_10_3)">
<path d="M219.277 349.668C212.224 349.668 206.454 343.898 206.454 336.845V48.9755C206.454 41.923 212.224 36.1528 219.277 36.1528C226.33 36.1528 232.101 41.923 232.101 48.9755V336.845C232.101 343.898 226.33 349.668 219.277 349.668Z" fill="white"/>
<path d="M96.8167 281.387C92.6491 281.387 88.1605 279.143 85.9164 275.296C82.0693 269.205 83.9929 261.511 90.084 257.665L335.335 106.677C341.426 102.83 349.121 104.754 352.968 110.845C356.815 116.935 354.891 124.629 348.8 128.476L103.549 279.463C101.305 280.746 99.0608 281.387 96.8167 281.387Z" fill="white"/>
<path d="M341.747 281.387C339.503 281.387 337.259 280.746 335.015 279.463L89.7647 128.476C83.6735 124.629 81.75 116.935 85.5971 110.845C89.4441 104.754 97.1382 102.83 103.229 106.677L348.479 257.665C354.571 261.511 356.494 269.205 352.647 275.296C350.403 279.143 346.235 281.387 341.747 281.387Z" fill="white"/>
<path d="M219.28 119.821C216.074 119.821 212.868 118.538 210.303 115.973L163.177 68.85C158.047 63.721 158.047 55.7068 163.177 50.5777C168.306 45.4486 176.321 45.4486 181.45 50.5777L219.6 88.7249L257.75 50.5777C262.88 45.4486 270.894 45.4486 276.024 50.5777C281.153 55.7068 281.153 63.721 276.024 68.85L228.897 115.973C225.692 118.538 222.486 119.821 219.28 119.821Z" fill="white"/>
<path d="M171.834 336.524C168.628 336.524 165.102 335.242 162.858 332.678C157.728 327.549 157.728 319.534 162.858 314.405L209.984 267.283C215.113 262.154 223.128 262.154 227.937 267.283L275.063 314.405C280.193 319.534 280.193 327.549 275.063 332.678C269.934 337.807 261.919 337.807 256.79 332.678L218.64 294.53L180.49 332.678C178.566 335.242 175.361 336.524 171.834 336.524Z" fill="white"/>
<path d="M356.491 177.203C355.529 177.203 354.247 177.202 353.285 176.882L288.527 160.533C281.795 158.93 277.627 151.878 279.23 145.146L295.259 80.3914C296.862 73.6595 303.915 69.4918 310.968 71.0947C317.7 72.6975 321.867 79.7503 320.265 86.8028L307.121 139.056L359.376 152.198C366.109 153.801 370.276 160.854 368.673 167.907C367.712 173.356 362.262 177.203 356.491 177.203Z" fill="white"/>
<path d="M130.156 312.802C129.194 312.802 128.233 312.802 126.95 312.482C120.218 310.879 116.05 303.827 117.653 296.774L130.797 244.522L78.5415 231.378C71.8092 229.776 67.6415 222.723 69.2444 215.671C70.8474 208.939 77.9003 204.772 84.9533 206.375L149.712 222.723C156.444 224.326 160.612 231.379 159.009 238.111L142.98 302.865C141.056 308.956 135.927 312.802 130.156 312.802Z" fill="white"/>
<path d="M308.082 312.802C302.311 312.802 297.181 308.956 295.579 303.185L279.549 238.431C277.946 231.699 282.114 224.646 288.846 223.043L353.606 206.694C360.338 205.091 367.391 209.259 369.315 215.991C370.917 222.723 366.75 229.775 360.017 231.699L307.761 244.842L320.584 297.095C322.188 303.827 318.02 310.879 311.287 312.482C310.005 312.802 309.043 312.802 308.082 312.802Z" fill="white"/>
<path d="M81.7474 177.203C75.9768 177.203 70.8474 173.356 69.2444 167.586C67.6415 160.854 71.8092 153.802 78.5415 151.878L130.797 138.735L117.974 86.4819C116.371 79.75 120.539 72.6975 127.271 71.0947C134.003 69.4918 141.056 73.6595 142.659 80.3914L158.689 145.146C160.291 151.878 156.124 158.93 149.391 160.533L84.6327 176.882C83.6709 176.882 82.7092 177.203 81.7474 177.203Z" fill="white"/>
<path d="M341.109 41.6009C340.147 41.6009 339.506 41.6015 338.544 41.2809C337.903 40.9604 336.941 40.9597 335.98 40.6392C335.338 40.3186 334.377 39.9983 333.735 39.3572C333.094 38.7161 332.453 38.3955 331.812 37.7544C329.568 35.5104 327.965 31.9838 327.965 28.7782C327.965 27.8165 327.965 27.1753 328.285 26.2136C328.606 25.5725 328.606 24.6114 328.927 23.6497C329.247 23.0086 329.568 22.0462 330.209 21.4051C330.53 20.764 331.171 20.1232 331.812 19.482C332.453 18.8409 333.094 18.1998 333.735 17.8792C334.377 17.5586 335.018 16.9172 335.98 16.5966C336.621 16.276 337.583 15.9555 338.544 15.9555C342.712 14.9938 347.2 16.5969 350.085 19.482C352.33 21.726 353.933 25.2526 353.933 28.4582C353.933 31.9845 352.65 35.1895 350.085 37.4335C347.841 40.3186 344.635 41.6009 341.109 41.6009Z" fill="white"/>
<path d="M12.8235 205.411C9.29706 205.411 6.09121 204.129 3.84709 201.564C1.60298 199 0 195.794 0 192.588C0 191.626 -7.82734e-05 190.985 0.32051 190.024C0.32051 189.062 0.641138 188.42 0.961726 187.459C1.28231 186.818 1.60298 185.856 2.24416 185.215C2.56474 184.574 3.20591 183.932 3.84709 183.291C6.73238 180.406 11.2206 179.124 15.3882 179.765C16.35 179.765 16.9911 180.086 17.9529 180.407C18.5941 180.727 19.5559 181.047 20.197 181.688C20.8382 182.009 21.4795 182.65 22.1207 183.291C22.7618 183.932 23.0824 184.574 23.7236 185.215C24.0442 185.856 24.6853 186.497 25.0059 187.459C25.3264 188.1 25.6471 189.062 25.6471 190.024C25.6471 190.985 25.9676 191.626 25.9676 192.588C25.9676 193.55 25.9676 194.191 25.6471 195.153C25.3265 196.115 25.3264 196.755 25.0059 197.717C24.6853 198.358 24.3648 199.32 23.7236 199.961C23.0824 200.603 22.7618 201.243 22.1207 201.884C21.4795 202.525 20.8382 203.166 20.197 203.487C19.5559 203.808 18.9146 204.449 17.9529 204.77C17.3117 205.091 16.35 205.411 15.3882 205.411C14.4264 205.09 13.7853 205.411 12.8235 205.411Z" fill="white"/>
<path d="M48.4088 38.0775C47.447 38.0775 46.8058 38.0772 45.8441 37.7566C44.8823 37.436 44.2411 37.4364 43.2794 37.1158C42.6382 36.7952 41.6764 36.474 41.0352 35.8329C40.3941 35.5123 39.7529 34.8712 39.1117 34.2301C38.4705 33.5889 37.8294 32.9484 37.5088 32.3073C37.1882 31.6662 36.547 31.025 36.2264 30.0633C35.9058 29.4222 35.5852 28.4598 35.5852 27.8187C35.5852 26.857 35.2646 26.2165 35.2646 25.2548C35.2646 24.2931 35.2646 23.652 35.5852 22.6903C35.9058 22.0491 35.9058 21.0871 36.2264 20.1254C36.547 19.4843 36.8676 18.5229 37.5088 17.8818C37.8294 17.2406 38.4705 16.5992 39.1117 15.958C39.7529 15.3169 40.3941 14.6758 41.0352 14.3552C41.6764 13.7141 42.3176 13.3938 43.2794 13.0732C44.2411 12.7527 44.8823 12.4321 45.8441 12.4321C47.447 12.1115 49.0499 12.1115 50.9735 12.4321C51.9352 12.4321 52.5764 12.7527 53.5382 13.0732C54.1794 13.3938 55.1411 13.7141 55.7823 14.3552C56.4235 14.6758 57.0646 15.3169 57.7058 15.958C58.347 16.5992 58.9882 17.2406 59.3088 17.8818C59.6294 18.5229 60.2705 19.4843 60.5911 20.1254C60.9117 20.7665 61.2323 21.7286 61.2323 22.6903C61.2323 23.652 61.5529 24.2931 61.5529 25.2548C61.5529 26.2165 61.5529 26.857 61.2323 27.8187C60.9117 28.4598 60.9117 29.4222 60.5911 30.0633C60.2705 30.7044 59.9499 31.6662 59.3088 32.3073C58.9882 32.9484 58.347 33.5889 57.7058 34.2301C55.1411 36.7946 51.9352 38.0775 48.4088 38.0775Z" fill="white"/>
<path d="M131.123 399.997C130.161 399.997 129.52 399.997 128.558 399.676C127.597 399.356 126.955 399.356 125.994 399.035C125.353 398.715 124.391 398.394 123.75 397.753C123.108 397.112 122.467 396.791 121.826 396.15C121.185 395.509 120.544 394.868 120.223 394.227C119.903 393.585 119.261 392.944 118.941 391.983C118.62 391.341 118.3 390.38 118.3 389.418C118.3 388.456 117.979 387.815 117.979 386.854C117.979 385.892 117.979 385.251 118.3 384.289C118.62 383.327 118.62 382.686 118.941 381.724C119.261 381.083 119.582 380.122 120.223 379.48C120.544 378.839 121.185 378.198 121.826 377.557C124.711 374.672 129.2 373.069 133.367 374.031C134.329 374.031 134.97 374.351 135.932 374.672C136.573 374.993 137.535 375.313 138.176 375.954C138.817 376.275 139.458 376.916 140.1 377.557C140.741 378.198 141.382 378.839 141.703 379.48C142.023 380.122 142.664 381.083 142.985 381.724C143.305 382.366 143.626 383.327 143.626 384.289C143.626 385.251 143.947 385.892 143.947 386.854C143.947 387.815 143.947 388.456 143.626 389.418C143.305 390.38 143.305 391.021 142.985 391.983C142.664 392.624 142.344 393.585 141.703 394.227C141.382 394.868 140.741 395.509 140.1 396.15C139.458 396.791 138.817 397.112 138.176 397.753C137.535 398.073 136.573 398.715 135.932 399.035C135.291 399.356 134.329 399.676 133.367 399.676C132.726 399.997 132.085 399.997 131.123 399.997Z" fill="white"/>
</g>
<defs>
<clipPath id="clip0_10_3">
<rect width="436" height="452" fill="white" transform="translate(0 -52)"/>
</clipPath>
</defs>
</svg>
